<svg id="eFInjVG78RB1" xmlns="http://www.w3.org/2000/svg" xmlns:xlink="http://www.w3.org/1999/xlink" viewBox="0 0 300 300" shape-rendering="geometricPrecision" text-rendering="geometricPrecision" project-id="b541c90ce4c44c5bb7006fc171d45b34" export-id="07bc3d0d92034f2fb345c43627b7565e" cached="false"><path d="M191.34477,202.09424l-26.70868-26.70868c-4.30642,2.48824-9.30497,3.91214-14.6361,3.91214s-10.32968-1.4239-14.6361-3.91214l-26.70868,26.70868c24.1417,19.20902,58.54785,19.20904,82.68955,0h.00001Zm10.74947-10.74947c19.20902-24.1417,19.20904-58.54785,0-82.68955L175.38556,135.3639c2.48824,4.30642,3.91214,9.30497,3.91214,14.6361s-1.4239,10.32968-3.91214,14.6361l26.70868,26.70867ZM191.34477,97.90576c-24.1417-19.20902-58.54785-19.20904-82.68955,0l26.70868,26.70868c4.30642-2.48824,9.30497-3.91214,14.6361-3.91214s10.32968,1.4239,14.6361,3.91214l26.70867-26.70868ZM97.90576,108.65523c-19.20902,24.1417-19.20904,58.54785,0,82.68955l26.70868-26.70868c-2.48824-4.30642-3.91214-9.30497-3.91214-14.6361s1.4239-10.32968,3.91214-14.6361L97.90576,108.65523ZM206.92213,93.07788c5.044,5.044,12.59468,6.05361,18.64215,3.02878c3.49956,4.89426,6.46619,10.05219,8.89989,15.3935-5.64922,3.72329-8.5543,10.771-6.70708,17.66491c1.84513,6.88614,7.87334,11.53437,14.61814,11.94334.56582,5.91309.56582,11.87011,0,17.7832-6.7448.40896-12.77301,5.0572-14.61815,11.94334-1.84722,6.89392,1.05785,13.94162,6.70709,17.66491-2.43371,5.3413-5.40033,10.49923-8.89989,15.3935-6.04746-3.02482-13.59814-2.01523-18.64215,3.02878s-6.05361,12.59468-3.02878,18.64215c-4.89426,3.49956-10.05219,6.46619-15.3935,8.89989-3.72329-5.64922-10.771-8.5543-17.66491-6.70708-6.88614,1.84513-11.53437,7.87334-11.94334,14.61814-5.91309.56582-11.87011.56582-17.7832,0-.40896-6.7448-5.0572-12.77301-11.94334-14.61815-6.89392-1.84722-13.94162,1.05785-17.66491,6.70709-5.3413-2.43371-10.49923-5.40033-15.3935-8.89989c3.02482-6.04746,2.01523-13.59814-3.02878-18.64215s-12.59468-6.05361-18.64215-3.02878c-3.49956-4.89426-6.46619-10.05219-8.89989-15.3935c5.64922-3.72329,8.5543-10.771,6.70708-17.66491-1.84513-6.88614-7.87334-11.53437-14.61814-11.94334-.56582-5.91309-.56582-11.87011,0-17.7832c6.7448-.40896,12.77301-5.0572,14.61815-11.94334c1.84722-6.89392-1.05785-13.94162-6.70709-17.66491c2.43371-5.3413,5.40033-10.49923,8.89989-15.3935c6.04746,3.02482,13.59814,2.01523,18.64215-3.02878s6.05361-12.59468,3.02878-18.64215c4.89426-3.49956,10.05219-6.46619,15.3935-8.89989c3.72329,5.64922,10.771,8.5543,17.66491,6.70708c6.88614-1.84513,11.53437-7.87334,11.94334-14.61814c5.91309-.56582,11.87011-.56582,17.7832,0c.40896,6.7448,5.0572,12.77301,11.94334,14.61815c6.89392,1.84722,13.94162-1.05785,17.66491-6.70709c5.3413,2.43371,10.49923,5.40033,15.3935,8.89989-3.02482,6.04746-2.01523,13.59814,3.02878,18.64215ZM150,161.97883c6.61572,0,11.97883-5.3631,11.97883-11.97883s-5.3631-11.97883-11.97883-11.97883-11.97883,5.3631-11.97883,11.97883s5.3631,11.97883,11.97883,11.97883Z" transform="matrix(.818647 0 0 0.818647 23.884893 27.202947)" stroke-width="0"/><path d="M120.455543,64.120018L87.901351,166.790933l38.564197-34.557529-28.04669,121.201761l2.003335-86.143402-26.043354,25.041686L67.367167,64.620848l53.088376-.50083Z" transform="matrix(1.292017 0.285073-.285084 1.292068 21.489661-58.314859)" stroke-width="0.6"/></svg>
